<mxfile host="Electron" agent="Mozilla/5.0 (Windows NT 10.0; Win64; x64) AppleWebKit/537.36 (KHTML, like Gecko) draw.io/24.7.17 Chrome/128.0.6613.36 Electron/32.0.1 Safari/537.36" version="24.7.17">
  <diagram name="Page-1" id="vYl69SD2A2aCNhHtrwUj">
    <mxGraphModel dx="2284" dy="844" grid="1" gridSize="10" guides="1" tooltips="1" connect="1" arrows="1" fold="1" page="1" pageScale="1" pageWidth="850" pageHeight="1100" math="0" shadow="0">
      <root>
        <mxCell id="0" />
        <mxCell id="1" parent="0" />
        <mxCell id="N0H-EtGJxQJAciK9Aosy-8" style="edgeStyle=orthogonalEdgeStyle;rounded=0;orthogonalLoop=1;jettySize=auto;html=1;entryX=0.5;entryY=0;entryDx=0;entryDy=0;" edge="1" parent="1" source="N0H-EtGJxQJAciK9Aosy-1" target="N0H-EtGJxQJAciK9Aosy-6">
          <mxGeometry relative="1" as="geometry" />
        </mxCell>
        <mxCell id="N0H-EtGJxQJAciK9Aosy-9" style="edgeStyle=orthogonalEdgeStyle;rounded=0;orthogonalLoop=1;jettySize=auto;html=1;entryX=0.5;entryY=0;entryDx=0;entryDy=0;" edge="1" parent="1" source="N0H-EtGJxQJAciK9Aosy-1" target="N0H-EtGJxQJAciK9Aosy-7">
          <mxGeometry relative="1" as="geometry" />
        </mxCell>
        <mxCell id="N0H-EtGJxQJAciK9Aosy-1" value="Client Update&lt;div&gt;or Attendance Portal&lt;/div&gt;" style="rhombus;whiteSpace=wrap;html=1;" vertex="1" parent="1">
          <mxGeometry x="343" y="294" width="165" height="170" as="geometry" />
        </mxCell>
        <mxCell id="N0H-EtGJxQJAciK9Aosy-4" value="" style="edgeStyle=orthogonalEdgeStyle;rounded=0;orthogonalLoop=1;jettySize=auto;html=1;" edge="1" parent="1" source="N0H-EtGJxQJAciK9Aosy-2" target="N0H-EtGJxQJAciK9Aosy-3">
          <mxGeometry relative="1" as="geometry" />
        </mxCell>
        <mxCell id="N0H-EtGJxQJAciK9Aosy-2" value="Home" style="rounded=0;whiteSpace=wrap;html=1;" vertex="1" parent="1">
          <mxGeometry x="365" y="60" width="120" height="60" as="geometry" />
        </mxCell>
        <mxCell id="N0H-EtGJxQJAciK9Aosy-5" value="" style="edgeStyle=orthogonalEdgeStyle;rounded=0;orthogonalLoop=1;jettySize=auto;html=1;" edge="1" parent="1" source="N0H-EtGJxQJAciK9Aosy-3" target="N0H-EtGJxQJAciK9Aosy-1">
          <mxGeometry relative="1" as="geometry" />
        </mxCell>
        <mxCell id="N0H-EtGJxQJAciK9Aosy-3" value="Opens Entry Page&lt;div&gt;(1)&lt;/div&gt;" style="rounded=0;whiteSpace=wrap;html=1;" vertex="1" parent="1">
          <mxGeometry x="365" y="180" width="120" height="60" as="geometry" />
        </mxCell>
        <mxCell id="N0H-EtGJxQJAciK9Aosy-58" style="edgeStyle=orthogonalEdgeStyle;rounded=0;orthogonalLoop=1;jettySize=auto;html=1;entryX=0.5;entryY=0;entryDx=0;entryDy=0;" edge="1" parent="1" source="N0H-EtGJxQJAciK9Aosy-6" target="N0H-EtGJxQJAciK9Aosy-54">
          <mxGeometry relative="1" as="geometry" />
        </mxCell>
        <mxCell id="N0H-EtGJxQJAciK9Aosy-6" value="Client&amp;nbsp;&lt;div&gt;Update&amp;nbsp;&lt;span style=&quot;background-color: initial;&quot;&gt;or&amp;nbsp;&lt;/span&gt;&lt;span style=&quot;background-color: initial;&quot;&gt;Entry&lt;/span&gt;&lt;/div&gt;&lt;div&gt;&lt;span style=&quot;background-color: initial;&quot;&gt;Portal (2)&lt;/span&gt;&lt;/div&gt;" style="rounded=0;whiteSpace=wrap;html=1;" vertex="1" parent="1">
          <mxGeometry x="100" y="480" width="120" height="60" as="geometry" />
        </mxCell>
        <mxCell id="N0H-EtGJxQJAciK9Aosy-14" value="" style="edgeStyle=orthogonalEdgeStyle;rounded=0;orthogonalLoop=1;jettySize=auto;html=1;" edge="1" parent="1" source="N0H-EtGJxQJAciK9Aosy-7" target="N0H-EtGJxQJAciK9Aosy-13">
          <mxGeometry relative="1" as="geometry" />
        </mxCell>
        <mxCell id="N0H-EtGJxQJAciK9Aosy-7" value="Chose Class Portal (3)" style="rounded=0;whiteSpace=wrap;html=1;" vertex="1" parent="1">
          <mxGeometry x="724" y="480" width="120" height="60" as="geometry" />
        </mxCell>
        <mxCell id="N0H-EtGJxQJAciK9Aosy-18" value="" style="edgeStyle=orthogonalEdgeStyle;rounded=0;orthogonalLoop=1;jettySize=auto;html=1;" edge="1" parent="1" source="N0H-EtGJxQJAciK9Aosy-13" target="N0H-EtGJxQJAciK9Aosy-17">
          <mxGeometry relative="1" as="geometry" />
        </mxCell>
        <mxCell id="N0H-EtGJxQJAciK9Aosy-13" value="Attendance Portal&lt;div&gt;(4)&lt;/div&gt;" style="rounded=0;whiteSpace=wrap;html=1;" vertex="1" parent="1">
          <mxGeometry x="724" y="590" width="120" height="60" as="geometry" />
        </mxCell>
        <mxCell id="N0H-EtGJxQJAciK9Aosy-27" value="" style="edgeStyle=orthogonalEdgeStyle;rounded=0;orthogonalLoop=1;jettySize=auto;html=1;" edge="1" parent="1" source="N0H-EtGJxQJAciK9Aosy-15" target="N0H-EtGJxQJAciK9Aosy-25">
          <mxGeometry relative="1" as="geometry" />
        </mxCell>
        <mxCell id="N0H-EtGJxQJAciK9Aosy-15" value="View Client Info" style="rounded=0;whiteSpace=wrap;html=1;" vertex="1" parent="1">
          <mxGeometry x="934" y="860" width="120" height="60" as="geometry" />
        </mxCell>
        <mxCell id="N0H-EtGJxQJAciK9Aosy-23" style="edgeStyle=orthogonalEdgeStyle;rounded=0;orthogonalLoop=1;jettySize=auto;html=1;" edge="1" parent="1" source="N0H-EtGJxQJAciK9Aosy-16">
          <mxGeometry relative="1" as="geometry">
            <mxPoint x="594" y="980" as="targetPoint" />
          </mxGeometry>
        </mxCell>
        <mxCell id="N0H-EtGJxQJAciK9Aosy-35" style="edgeStyle=orthogonalEdgeStyle;rounded=0;orthogonalLoop=1;jettySize=auto;html=1;entryX=0;entryY=0.25;entryDx=0;entryDy=0;" edge="1" parent="1" source="N0H-EtGJxQJAciK9Aosy-16" target="N0H-EtGJxQJAciK9Aosy-15">
          <mxGeometry relative="1" as="geometry" />
        </mxCell>
        <mxCell id="N0H-EtGJxQJAciK9Aosy-16" value="Mark Attendance" style="rounded=0;whiteSpace=wrap;html=1;" vertex="1" parent="1">
          <mxGeometry x="534" y="860" width="120" height="60" as="geometry" />
        </mxCell>
        <mxCell id="N0H-EtGJxQJAciK9Aosy-19" style="edgeStyle=orthogonalEdgeStyle;rounded=0;orthogonalLoop=1;jettySize=auto;html=1;entryX=0.5;entryY=0;entryDx=0;entryDy=0;" edge="1" parent="1" source="N0H-EtGJxQJAciK9Aosy-17" target="N0H-EtGJxQJAciK9Aosy-16">
          <mxGeometry relative="1" as="geometry" />
        </mxCell>
        <mxCell id="N0H-EtGJxQJAciK9Aosy-20" style="edgeStyle=orthogonalEdgeStyle;rounded=0;orthogonalLoop=1;jettySize=auto;html=1;entryX=0.5;entryY=0;entryDx=0;entryDy=0;" edge="1" parent="1" source="N0H-EtGJxQJAciK9Aosy-17" target="N0H-EtGJxQJAciK9Aosy-15">
          <mxGeometry relative="1" as="geometry" />
        </mxCell>
        <mxCell id="N0H-EtGJxQJAciK9Aosy-17" value="Client Update&lt;div&gt;or Attendance Portal&lt;/div&gt;" style="rhombus;whiteSpace=wrap;html=1;" vertex="1" parent="1">
          <mxGeometry x="701.5" y="700" width="165" height="170" as="geometry" />
        </mxCell>
        <mxCell id="N0H-EtGJxQJAciK9Aosy-24" value="Home" style="rounded=0;whiteSpace=wrap;html=1;" vertex="1" parent="1">
          <mxGeometry x="554" y="980" width="80" height="30" as="geometry" />
        </mxCell>
        <mxCell id="N0H-EtGJxQJAciK9Aosy-25" value="Home" style="rounded=0;whiteSpace=wrap;html=1;" vertex="1" parent="1">
          <mxGeometry x="954" y="970" width="80" height="30" as="geometry" />
        </mxCell>
        <mxCell id="N0H-EtGJxQJAciK9Aosy-36" style="edgeStyle=orthogonalEdgeStyle;rounded=0;orthogonalLoop=1;jettySize=auto;html=1;entryX=1.05;entryY=0.883;entryDx=0;entryDy=0;entryPerimeter=0;" edge="1" parent="1" source="N0H-EtGJxQJAciK9Aosy-15" target="N0H-EtGJxQJAciK9Aosy-16">
          <mxGeometry relative="1" as="geometry" />
        </mxCell>
        <mxCell id="N0H-EtGJxQJAciK9Aosy-47" value="" style="edgeStyle=orthogonalEdgeStyle;rounded=0;orthogonalLoop=1;jettySize=auto;html=1;" edge="1" parent="1" source="N0H-EtGJxQJAciK9Aosy-48" target="N0H-EtGJxQJAciK9Aosy-56">
          <mxGeometry relative="1" as="geometry" />
        </mxCell>
        <mxCell id="N0H-EtGJxQJAciK9Aosy-48" value="Client Update" style="rounded=0;whiteSpace=wrap;html=1;" vertex="1" parent="1">
          <mxGeometry x="310" y="781" width="120" height="60" as="geometry" />
        </mxCell>
        <mxCell id="N0H-EtGJxQJAciK9Aosy-49" style="edgeStyle=orthogonalEdgeStyle;rounded=0;orthogonalLoop=1;jettySize=auto;html=1;" edge="1" parent="1" source="N0H-EtGJxQJAciK9Aosy-51">
          <mxGeometry relative="1" as="geometry">
            <mxPoint x="-30" y="901" as="targetPoint" />
          </mxGeometry>
        </mxCell>
        <mxCell id="N0H-EtGJxQJAciK9Aosy-51" value="Client entry" style="rounded=0;whiteSpace=wrap;html=1;" vertex="1" parent="1">
          <mxGeometry x="-90" y="781" width="120" height="60" as="geometry" />
        </mxCell>
        <mxCell id="N0H-EtGJxQJAciK9Aosy-52" style="edgeStyle=orthogonalEdgeStyle;rounded=0;orthogonalLoop=1;jettySize=auto;html=1;entryX=0.5;entryY=0;entryDx=0;entryDy=0;" edge="1" parent="1" source="N0H-EtGJxQJAciK9Aosy-54" target="N0H-EtGJxQJAciK9Aosy-51">
          <mxGeometry relative="1" as="geometry" />
        </mxCell>
        <mxCell id="N0H-EtGJxQJAciK9Aosy-53" style="edgeStyle=orthogonalEdgeStyle;rounded=0;orthogonalLoop=1;jettySize=auto;html=1;entryX=0.5;entryY=0;entryDx=0;entryDy=0;" edge="1" parent="1" source="N0H-EtGJxQJAciK9Aosy-54" target="N0H-EtGJxQJAciK9Aosy-48">
          <mxGeometry relative="1" as="geometry" />
        </mxCell>
        <mxCell id="N0H-EtGJxQJAciK9Aosy-54" value="Chose Option" style="rhombus;whiteSpace=wrap;html=1;" vertex="1" parent="1">
          <mxGeometry x="77.5" y="621" width="165" height="170" as="geometry" />
        </mxCell>
        <mxCell id="N0H-EtGJxQJAciK9Aosy-55" value="Home" style="rounded=0;whiteSpace=wrap;html=1;" vertex="1" parent="1">
          <mxGeometry x="-70" y="901" width="80" height="30" as="geometry" />
        </mxCell>
        <mxCell id="N0H-EtGJxQJAciK9Aosy-56" value="Home" style="rounded=0;whiteSpace=wrap;html=1;" vertex="1" parent="1">
          <mxGeometry x="330" y="891" width="80" height="30" as="geometry" />
        </mxCell>
      </root>
    </mxGraphModel>
  </diagram>
</mxfile>
